<?xml version="1.0" standalone="no"?><!DOCTYPE svg PUBLIC "-//W3C//DTD SVG 1.1//EN" "http://www.w3.org/Graphics/SVG/1.1/DTD/svg11.dtd"><svg t="1612320848400" class="icon" viewBox="0 0 1024 1024" version="1.1" xmlns="http://www.w3.org/2000/svg" p-id="2370" xmlns:xlink="http://www.w3.org/1999/xlink" width="30" height="30"><defs><style type="text/css"></style></defs><path d="M512 0C229.3 0 0 229.3 0 512s229.2 512 512 512 512-229.2 512-512S794.7 0 512 0z m264.5 665.5c0 39.2-31.8 71-71 71h-387c-39.2 0-71-31.8-71-71V429.3l258 137.3c4 2.1 8.7 2.1 12.7 0l258.3-137.5v236.4z m0-291.3L511.9 518.4l-264.4-144v-15.9c0-39.2 31.8-71 71-71h387c39.2 0 71 31.8 71 71v15.7z" p-id="2371" fill="#ffffff"></path></svg>