<?xml version="1.0" standalone="no"?><!DOCTYPE svg PUBLIC "-//W3C//DTD SVG 1.1//EN" "http://www.w3.org/Graphics/SVG/1.1/DTD/svg11.dtd"><svg t="1612320909324" class="icon" viewBox="0 0 1024 1024" version="1.1" xmlns="http://www.w3.org/2000/svg" p-id="3752" xmlns:xlink="http://www.w3.org/1999/xlink" width="30" height="30"><defs><style type="text/css"></style></defs><path d="M512 0.452301c-282.53135 0-511.56917 229.027184-511.56917 511.547699s229.036797 511.547699 511.56917 511.547699 511.56917-229.027184 511.56917-511.547699S794.53135 0.452301 512 0.452301zM309.337981 766.096139c-28.925987 0-52.373986-23.450085-52.373986-52.374858 0-28.92682 23.449022-52.374858 52.373986-52.374858s52.377056 23.448038 52.377056 52.374858C361.715037 742.646054 338.263968 766.096139 309.337981 766.096139zM518.800155 767.133771c0-144.855132-117.849911-262.697027-262.617999-262.697027L256.182156 393.830647c206.267278 0 373.301396 167.210279 373.301396 373.304148L518.800155 767.134795zM719.904637 767.133771c0-255.703753-207.93329-463.788975-463.722481-463.788975L256.182156 192.730513c317.284287 0 574.420205 257.279644 574.420205 574.403259L719.904637 767.133771z" p-id="3753" fill="#ffffff"></path></svg>